<?xml version="1.0" encoding="UTF-8" standalone="no"?>
<!-- Created with Inkscape (http://www.inkscape.org/) -->

<svg
   width="512"
   height="512"
   viewBox="0 0 135.46666 135.46667"
   version="1.1"
   id="svg1"
   xml:space="preserve"
   inkscape:version="1.3 (0e150ed6c4, 2023-07-21)"
   sodipodi:docname="sorkk.svg"
   inkscape:export-filename="sorkk.png"
   inkscape:export-xdpi="96"
   inkscape:export-ydpi="96"
   xmlns:inkscape="http://www.inkscape.org/namespaces/inkscape"
   xmlns:sodipodi="http://sodipodi.sourceforge.net/DTD/sodipodi-0.dtd"
   xmlns:xlink="http://www.w3.org/1999/xlink"
   xmlns="http://www.w3.org/2000/svg"
   xmlns:svg="http://www.w3.org/2000/svg"><sodipodi:namedview
     id="namedview1"
     pagecolor="#ffffff"
     bordercolor="#000000"
     borderopacity="0.25"
     inkscape:showpageshadow="2"
     inkscape:pageopacity="0.0"
     inkscape:pagecheckerboard="0"
     inkscape:deskcolor="#d1d1d1"
     inkscape:document-units="mm"
     inkscape:zoom="0.47697849"
     inkscape:cx="775.71632"
     inkscape:cy="324.96224"
     inkscape:window-width="2542"
     inkscape:window-height="1328"
     inkscape:window-x="1281"
     inkscape:window-y="16"
     inkscape:window-maximized="0"
     inkscape:current-layer="layer1" /><defs
     id="defs1"><linearGradient
       id="linearGradient8"
       inkscape:collect="always"><stop
         style="stop-color:#6363ff;stop-opacity:1;"
         offset="0"
         id="stop8" /><stop
         style="stop-color:#481374;stop-opacity:1;"
         offset="1"
         id="stop9" /></linearGradient><linearGradient
       inkscape:collect="always"
       xlink:href="#linearGradient8"
       id="linearGradient9"
       x1="105.25567"
       y1="185.02257"
       x2="105.25567"
       y2="105.11698"
       gradientUnits="userSpaceOnUse"
       gradientTransform="matrix(1.6842274,0,0,1.6842274,-107.9062,-176.10662)" /></defs><g
     inkscape:label="Layer 1"
     inkscape:groupmode="layer"
     id="layer1"><rect
       style="fill:url(#linearGradient9);stroke:none;stroke-width:3.3634;stroke-dasharray:none;stroke-opacity:1"
       id="rect7"
       width="135.46666"
       height="135.46666"
       x="0"
       y="0"
       ry="0" /><g
       id="g9"
       transform="matrix(-1.6459059,0,0,1.6459059,240.95556,-175.2417)"><path
         d="m 120.20571,134.01352 c 2.29037,-2.02609 5.10926,-3.21528 8.45671,-3.56764 6.6949,-0.70474 9.60188,1.58561 8.72098,6.87106 -0.88089,5.28545 -5.7259,8.80909 -14.53496,10.57087 -4.06989,9.14373 -10.79942,15.62782 -21.14177,18.49909 -8.809094,-3.52367 -16.032534,-9.33764 -21.670334,-17.44198 l -0.1982,-0.1982 c -3.39149,-2.51061 -5.52769,-5.17534 -6.4086,-7.99423 -1.76181,-5.63782 -0.616631,-8.721 3.43554,-9.24955 4.05217,-0.52855 7.57581,-1.2773 10.57089,-2.24629 2.99508,-0.96902 7.00321,-1.62971 12.024394,-1.98206 5.02117,-0.35223 8.85312,-0.088 11.49583,0.79283 1.32137,0.44044 2.75284,1.21124 4.29444,2.31235 0.77079,0.55059 1.56912,1.18376 2.39496,1.89947 0.41292,0.35789 0.83273,0.7364 1.25942,1.13555 0.21333,0.19971 0.42841,0.40435 0.64519,0.61424 0.10839,0.10495 0.21723,0.21103 0.32647,0.31862 z"
         style="fill:#ffffff;fill-opacity:1;stroke:none;stroke-width:1.74988;stroke-miterlimit:10;stroke-dasharray:none;stroke-opacity:1"
         id="path1-0"
         sodipodi:nodetypes="cssccccssscssscscc" /><g
         id="g4"
         transform="matrix(0.26458333,0,0,0.26458333,69.064686,124.37951)"
         style="stroke:#f0f0f0;stroke-opacity:1"><path
           d="M 94,122 Q 27,97 17,65 7,33 30,30 53,27 70,21.5 87,16 115.5,14 144,12 159,17 q 15,5 35,25"
           fill="none"
           stroke="#f0f0f0"
           stroke-width="8"
           stroke-miterlimit="10"
           pointer-events="stroke"
           id="path2"
           style="fill:none;fill-opacity:1;stroke:#f0f0f0;stroke-opacity:1" /><path
           d="m 94,42 q -10,9 -1,15 9,6 20,5.5 11,-0.5 11,-8 Q 124,47 114,40 104,33 94,42"
           fill="none"
           stroke="#f0f0f0"
           stroke-width="8"
           stroke-miterlimit="10"
           pointer-events="stroke"
           id="path3"
           style="stroke:#000000;stroke-opacity:1" /><path
           d="m 174,72 c 9.33333,-28 26.66667,-43.333333 52,-46 25.33333,-2.666667 36.33333,6 33,26 -3.33333,20 -21.66667,33.333333 -55,40 -33.23588,54.86555 -56.35691,61.17983 -80,70 C 90.666667,148.66667 63.333333,126.66667 42,96"
           fill="none"
           stroke="#f0f0f0"
           stroke-width="8"
           stroke-miterlimit="10"
           pointer-events="stroke"
           id="path1"
           sodipodi:nodetypes="cssccc"
           style="fill:none;fill-opacity:1;stroke:#000000;stroke-opacity:1" /><path
           d="M 94,122 Q 27,97 17,65 7,33 30,30 53,27 70,21.5 87,16 115.5,14 144,12 159,17 q 15,5 35,25"
           fill="none"
           stroke="#f0f0f0"
           stroke-width="8"
           stroke-miterlimit="10"
           pointer-events="stroke"
           id="path5"
           style="fill:none;fill-opacity:1;stroke:#000000;stroke-opacity:1" /></g><path
         style="fill:#ffffff;fill-opacity:1;stroke:#000000;stroke-width:1.997;stroke-dasharray:none;stroke-opacity:1"
         d="m 80.016373,132.57614 c 1.17671,4.51073 -0.73689,9.72266 -6.091573,9.46128"
         id="path6"
         sodipodi:nodetypes="cc" /><ellipse
         style="fill:#ffffff;fill-opacity:1;stroke:#000000;stroke-width:1.997;stroke-dasharray:none;stroke-opacity:1"
         id="path7"
         cx="96.241676"
         cy="137.28999"
         rx="1.1094141"
         ry="0.83206058" /></g></g></svg>
